<?xml version="1.0" standalone="no"?>
<!DOCTYPE svg PUBLIC "-//W3C//DTD SVG 20010904//EN"
 "http://www.w3.org/TR/2001/REC-SVG-20010904/DTD/svg10.dtd">
<svg version="1.0" xmlns="http://www.w3.org/2000/svg"
 width="4000.000000pt" height="4000.000000pt" viewBox="0 0 4000.000000 4000.000000"
 preserveAspectRatio="xMidYMid meet">

<g transform="translate(0.000000,4000.000000) scale(0.100000,-0.100000)"
fill="#000000" stroke="none">
<path d="M19735 34444 c-2005 -58 -3883 -626 -5553 -1678 -1664 -1049 -2998
-2511 -3910 -4285 l-125 -243 882 -882 881 -881 0 -408 0 -409 68 104 c384
582 924 911 1651 1004 174 23 557 23 746 0 785 -95 1415 -436 1887 -1022 205
-255 396 -586 486 -844 l30 -85 6 -585 c3 -322 11 -945 17 -1385 l11 -800 -21
-49 c-59 -136 -198 -289 -313 -345 -101 -49 -176 -64 -297 -58 -124 5 -182 22
-271 76 l-65 40 -387 -387 -388 -387 0 -3581 0 -3581 171 -82 c448 -215 825
-369 1292 -526 l217 -74 0 2978 0 2978 -42 19 c-59 26 -135 99 -165 157 -91
181 -4 406 185 477 78 30 195 25 267 -10 71 -34 149 -117 174 -185 28 -76 28
-175 -1 -252 -26 -72 -111 -160 -180 -189 l-48 -19 0 -3005 0 -3006 193 -52
c487 -132 960 -226 1467 -292 199 -25 438 -50 490 -50 l40 0 0 698 0 699 -50
23 c-65 31 -151 121 -176 185 -28 74 -26 204 5 267 36 75 95 134 169 170 59
29 76 33 147 33 65 -1 91 -5 137 -27 190 -88 263 -323 154 -497 -32 -50 -100
-109 -152 -133 l-44 -19 0 -708 0 -708 73 -6 c39 -4 255 -10 479 -13 l408 -7
-41 43 c-67 71 -94 139 -94 240 0 71 4 94 26 141 35 75 96 134 176 171 59 28
70 30 151 26 107 -5 165 -32 235 -107 116 -124 128 -286 31 -427 l-44 -65 47
6 c27 2 107 10 178 15 252 21 783 87 918 116 l27 6 0 1115 0 1115 88 -7 c48
-4 90 -12 94 -19 4 -6 8 -496 8 -1088 0 -962 2 -1078 15 -1078 63 0 675 147
980 235 159 46 656 210 728 239 l37 16 0 2143 0 2142 -45 18 c-68 28 -130 89
-167 165 -30 60 -33 75 -33 152 1 73 5 93 30 143 34 68 107 140 173 170 67 31
207 31 274 0 66 -30 143 -105 175 -172 24 -49 28 -68 28 -146 0 -75 -5 -98
-25 -140 -32 -66 -113 -146 -172 -171 l-48 -19 0 -2107 0 -2107 122 50 c513
211 1005 459 1501 756 l207 125 0 2824 0 2824 -162 0 c-90 0 -899 -11 -1798
-25 -899 -14 -1677 -25 -1727 -25 l-93 0 0 -347 c0 -192 -3 -358 -6 -371 -6
-20 -12 -22 -75 -22 l-69 0 0 40 c0 27 -4 40 -14 40 -22 0 -26 57 -26 366 l0
292 -25 0 c-33 -1 -161 74 -240 139 -147 121 -214 260 -202 422 13 191 150
372 384 508 l82 48 1 798 0 798 95 -82 95 -82 0 -720 0 -719 243 6 c133 3 933
13 1777 21 844 9 1586 18 1648 21 l112 6 0 449 0 448 29 16 c17 8 60 37 96 65
36 27 68 50 71 50 2 0 4 -232 4 -515 l0 -515 134 0 135 0 88 59 c138 93 239
179 368 313 138 143 231 269 309 419 202 387 209 795 19 1174 -146 290 -425
591 -756 815 l-88 60 -105 0 -104 0 0 -490 c0 -269 -3 -490 -8 -490 -4 0 -32
18 -62 41 -30 22 -72 50 -92 60 l-38 19 0 430 c0 400 -1 429 -17 434 -10 2
-477 8 -1038 11 -561 4 -1086 10 -1166 14 l-145 7 -75 44 c-141 83 -247 216
-284 355 -19 76 -19 214 0 289 46 175 186 329 379 416 l62 28 925 -13 c508 -8
1022 -15 1142 -15 l217 0 0 460 0 460 100 0 100 0 0 -465 0 -465 143 0 c125 0
153 -3 214 -24 373 -127 783 -381 1082 -670 450 -437 717 -987 797 -1641 23
-191 23 -554 0 -730 -92 -707 -432 -1246 -1022 -1620 -104 -66 -349 -188 -481
-239 -233 -90 -470 -146 -625 -146 l-108 0 0 -2760 c0 -1518 3 -2760 6 -2760
8 0 310 211 454 318 633 468 1272 1066 1795 1677 1490 1740 2395 3911 2579
6185 49 595 49 1250 1 1825 -75 891 -244 1715 -524 2555 -785 2350 -2355 4371
-4441 5717 -693 446 -1441 817 -2215 1096 -986 355 -2044 569 -3095 626 -206
11 -716 20 -885 15z m2390 -4373 c70 -33 147 -110 178 -179 16 -36 21 -67 22
-132 0 -73 -4 -93 -28 -142 -36 -72 -98 -136 -165 -167 l-52 -24 0 -1397 0
-1397 -57 -38 c-32 -21 -75 -51 -95 -67 l-38 -30 0 1464 0 1463 -49 23 c-233
106 -268 437 -63 585 71 51 117 66 207 66 68 1 89 -3 140 -28z m6012 -881 c72
-35 124 -90 161 -170 38 -79 37 -191 0 -272 -78 -167 -255 -247 -423 -190
l-60 21 -760 -759 -760 -760 -135 0 -135 0 827 828 827 827 -21 60 c-39 115
-13 246 68 334 107 119 268 151 411 81z m-7662 -2875 c70 -34 147 -119 174
-190 28 -74 28 -166 -1 -242 -24 -65 -94 -146 -156 -181 l-39 -21 -67 113
c-75 125 -176 264 -267 368 l-60 66 43 35 c84 68 146 89 246 83 53 -3 89 -12
127 -31z m5237 -3442 c85 -40 151 -105 191 -191 30 -63 32 -74 32 -177 0 -101
-2 -115 -29 -170 -38 -77 -120 -158 -193 -193 -53 -24 -69 -27 -173 -27 -107
0 -119 2 -175 29 -77 38 -153 114 -191 191 -27 55 -29 69 -29 170 0 103 2 114
32 177 71 151 204 230 378 225 77 -2 100 -7 157 -34z m-5884 -1954 c2 -5 21
-9 43 -9 28 0 39 -4 39 -15 0 -9 9 -15 25 -15 14 0 25 -4 25 -10 0 -5 7 -10
15 -10 8 0 15 -7 15 -15 0 -8 4 -15 9 -15 5 0 12 -13 16 -30 4 -16 11 -30 16
-30 5 0 9 -456 9 -1150 l0 -1150 89 0 c84 0 89 1 95 23 3 12 6 248 6 525 l0
502 285 0 c239 0 285 -2 285 -14 0 -8 6 -16 13 -18 9 -4 13 -117 15 -511 l3
-507 100 0 99 0 0 390 0 390 255 0 c163 0 255 -4 255 -10 0 -6 28 -10 65 -10
36 0 65 -4 65 -10 0 -5 11 -12 25 -16 18 -4 25 -13 25 -30 0 -13 5 -24 10 -24
7 0 10 -188 10 -544 0 -299 3 -551 6 -560 5 -13 23 -16 95 -16 l89 0 0 470 0
470 105 0 c87 0 105 -3 105 -15 0 -10 11 -15 35 -15 19 0 35 -4 35 -10 0 -5 7
-10 15 -10 8 0 15 -7 15 -15 0 -8 9 -15 20 -15 18 0 60 -32 60 -45 0 -7 15
-25 53 -65 15 -15 27 -38 27 -49 0 -12 4 -21 10 -21 5 0 13 -18 16 -40 4 -22
10 -40 15 -40 5 0 9 -18 9 -40 0 -29 4 -40 15 -40 12 0 15 -18 15 -105 0 -63
4 -105 10 -105 6 0 10 -52 10 -135 0 -83 -4 -135 -10 -135 -6 0 -10 -107 -10
-300 0 -260 -2 -300 -15 -300 -13 0 -15 -23 -15 -145 0 -80 -4 -145 -9 -145
-5 0 -12 -40 -15 -90 -4 -49 -12 -90 -17 -90 -5 0 -9 -36 -9 -80 0 -44 -4 -80
-9 -80 -5 0 -11 -27 -13 -61 -2 -33 -9 -64 -15 -67 -6 -4 -14 -35 -18 -69 -4
-35 -11 -63 -16 -63 -5 0 -9 -22 -9 -50 0 -27 -4 -50 -9 -50 -5 0 -11 -18 -15
-40 -3 -22 -11 -40 -16 -40 -6 0 -10 -22 -10 -50 0 -38 -4 -50 -15 -50 -11 0
-15 -11 -15 -40 0 -22 -4 -40 -10 -40 -5 0 -13 -18 -16 -40 -4 -22 -10 -40
-15 -40 -5 0 -9 -13 -9 -30 0 -16 -4 -30 -9 -30 -5 0 -12 -18 -16 -40 -4 -22
-10 -40 -15 -40 -4 0 -11 -16 -14 -35 -4 -19 -11 -35 -16 -35 -6 0 -10 -13
-10 -30 0 -16 -4 -30 -9 -30 -5 0 -12 -18 -16 -40 -4 -22 -11 -40 -16 -40 -5
0 -9 -16 -9 -35 0 -24 -5 -35 -15 -35 -11 0 -15 -11 -15 -40 0 -22 -4 -40 -9
-40 -5 0 -11 -18 -15 -40 -3 -22 -11 -40 -16 -40 -6 0 -10 -25 -10 -55 0 -30
-4 -55 -9 -55 -4 0 -11 -33 -14 -72 -4 -40 -11 -74 -17 -76 -5 -2 -10 -32 -10
-68 l0 -64 -145 0 c-90 0 -145 4 -145 10 0 6 -18 10 -40 10 -22 0 -40 -4 -40
-10 0 -5 -7 -10 -15 -10 -8 0 -15 5 -15 10 0 7 -153 10 -440 10 -287 0 -440
-3 -440 -10 0 -14 -37 -12 -44 3 -5 10 -7 10 -12 0 -4 -10 -114 -13 -500 -13
l-494 0 -6 40 c-4 22 -10 40 -15 40 -5 0 -9 23 -9 50 0 28 -4 50 -10 50 -5 0
-13 18 -16 40 -4 22 -10 40 -15 40 -5 0 -12 18 -15 40 -4 22 -10 40 -15 40 -5
0 -9 18 -9 40 0 22 -4 40 -10 40 -5 0 -12 16 -16 35 -3 19 -10 35 -15 35 -5 0
-9 18 -9 40 0 29 -4 40 -15 40 -11 0 -15 11 -15 40 0 22 -4 40 -10 40 -5 0
-13 18 -16 40 -4 22 -10 40 -15 40 -5 0 -9 12 -9 26 0 14 -7 32 -15 40 -8 9
-15 26 -15 40 0 13 -4 24 -10 24 -5 0 -13 18 -16 40 -4 22 -10 40 -15 40 -5 0
-9 12 -9 26 0 14 -7 32 -15 40 -8 9 -15 26 -15 40 0 13 -4 24 -10 24 -5 0 -10
14 -10 30 0 20 -5 30 -15 30 -10 0 -15 11 -15 35 0 19 -4 35 -9 35 -5 0 -12
11 -15 25 -4 14 -11 25 -16 25 -6 0 -10 18 -10 39 0 25 -5 41 -15 45 -8 3 -15
15 -15 26 0 11 -4 20 -10 20 -5 0 -10 14 -10 30 0 20 -5 30 -15 30 -9 0 -15 9
-15 25 0 14 -4 25 -9 25 -5 0 -12 14 -16 30 -4 17 -11 30 -16 30 -5 0 -9 11
-9 25 0 14 -4 25 -10 25 -5 0 -12 15 -16 34 -3 19 -12 37 -20 40 -8 3 -14 17
-14 31 0 14 -4 25 -10 25 -5 0 -10 7 -10 15 0 8 -4 15 -10 15 -5 0 -12 11 -16
25 -3 14 -10 25 -15 25 -5 0 -9 11 -9 25 0 16 -6 25 -15 25 -9 0 -15 9 -15 25
0 14 -4 25 -10 25 -5 0 -12 11 -16 25 -3 14 -10 25 -15 25 -5 0 -9 7 -9 15 0
8 -4 15 -10 15 -5 0 -10 6 -10 14 0 8 -6 21 -14 28 -7 8 -17 24 -20 36 -4 12
-12 22 -17 22 -5 0 -9 7 -9 15 0 8 -4 15 -10 15 -5 0 -12 11 -16 25 -3 14 -10
25 -15 25 -5 0 -9 7 -9 15 0 8 -7 15 -15 15 -9 0 -15 9 -15 25 0 16 -6 25 -15
25 -8 0 -15 7 -15 15 0 8 -4 15 -10 15 -5 0 -10 5 -10 11 0 13 -25 39 -39 39
-6 0 -13 11 -17 25 -3 14 -10 25 -15 25 -5 0 -9 7 -9 15 0 8 -5 15 -11 15 -14
0 -39 25 -39 39 0 6 -7 11 -15 11 -8 0 -15 7 -15 15 0 8 -5 15 -11 15 -14 0
-39 25 -39 39 0 6 -7 11 -15 11 -10 0 -15 10 -15 30 0 17 -4 30 -10 30 -5 0
-10 16 -10 35 0 24 -5 35 -15 35 -11 0 -15 11 -15 40 0 22 -4 40 -10 40 -5 0
-12 11 -16 25 -3 14 -10 25 -15 25 -5 0 -9 18 -9 40 0 22 -4 40 -10 40 -5 0
-13 18 -16 40 -4 22 -10 40 -15 40 -5 0 -12 18 -15 40 -4 22 -10 40 -15 40 -5
0 -9 29 -9 64 0 42 -4 66 -12 70 -10 5 -10 7 0 12 6 3 12 12 12 20 0 11 16 14
65 14 51 0 65 3 65 15 0 12 17 15 95 15 78 0 95 -3 95 -15 0 -11 11 -15 40
-15 22 0 40 -4 40 -10 0 -5 9 -10 20 -10 11 0 23 -7 26 -15 4 -8 17 -15 30
-15 13 0 24 -4 24 -10 0 -5 6 -10 13 -10 8 0 24 -9 37 -20 13 -11 29 -20 37
-20 7 0 13 -4 13 -10 0 -5 5 -10 11 -10 7 0 22 -11 35 -25 13 -14 32 -25 44
-25 11 0 20 -5 20 -11 0 -11 54 -69 65 -69 4 0 20 -13 37 -30 16 -16 36 -30
44 -30 8 0 14 -4 14 -10 0 -5 16 -10 35 -10 l34 0 3 -157 3 -158 87 -3 88 -3
2 1466 c2 1057 6 1468 14 1473 6 4 14 24 18 45 4 20 11 37 16 37 6 0 10 7 10
15 0 8 4 15 9 15 5 0 13 10 17 22 9 28 24 43 52 52 12 4 22 12 22 17 0 5 11 9
25 9 14 0 25 4 25 10 0 5 18 13 40 16 22 4 40 10 40 15 0 17 232 15 238 -2z
m592 -1064 l0 -155 -84 0 c-101 0 -96 -9 -96 168 l0 122 53 1 c28 1 63 5 77 9
51 16 50 20 50 -145z"/>
<path d="M9992 27888 c-478 -1103 -765 -2238 -866 -3428 -31 -358 -39 -626
-33 -1089 6 -474 18 -679 63 -1081 237 -2127 1086 -4111 2473 -5778 l86 -103
5 1802 5 1801 -37 39 c-57 59 -112 136 -151 209 l-34 65 33 2205 34 2205 26
120 c14 66 48 185 75 265 l49 145 0 570 0 570 -823 823 c-452 452 -825 822
-828 822 -4 0 -38 -73 -77 -162z"/>
<path d="M13930 25705 c-286 -48 -552 -183 -811 -411 -134 -117 -323 -338
-394 -459 l-24 -40 -26 -2215 c-18 -1572 -29 -2223 -37 -2244 -21 -52 -104
-171 -168 -239 -73 -78 -176 -150 -257 -179 -67 -24 -199 -34 -260 -20 l-43
10 0 -1863 0 -1864 278 -282 c283 -288 513 -504 746 -702 556 -471 1147 -880
1777 -1230 86 -48 159 -87 162 -87 4 0 7 1605 7 3568 l0 3567 419 419 418 418
-33 56 c-19 30 -36 69 -39 86 -3 17 -11 641 -18 1386 l-13 1355 -52 78 c-173
255 -453 533 -685 680 -156 99 -365 183 -531 212 -106 18 -309 18 -416 0z"/>
<path d="M4800 8997 l0 -1107 110 0 110 0 2 794 3 795 255 -317 c140 -174 296
-367 347 -429 l92 -114 343 426 343 425 3 -790 2 -790 110 0 110 0 0 1107 c0
938 -2 1105 -14 1093 -7 -8 -213 -262 -456 -563 -361 -448 -445 -546 -455
-535 -7 7 -205 252 -440 543 -235 292 -436 539 -446 550 -19 19 -19 -1 -19
-1088z"/>
<path d="M7334 8992 l-441 -1097 91 -22 c50 -12 98 -22 107 -23 10 0 27 29 51
93 49 125 291 709 301 725 6 9 85 12 336 12 l328 0 86 -202 c48 -112 127 -297
176 -413 101 -239 78 -220 219 -183 45 11 81 24 80 28 -334 829 -884 2180
-888 2180 -3 0 -204 -494 -446 -1098z m456 527 c0 -6 50 -145 111 -308 62
-163 114 -304 117 -313 4 -17 -12 -18 -242 -18 -135 0 -246 3 -246 7 0 4 55
151 122 325 107 280 138 348 138 307z"/>
<path d="M31800 8972 l0 -1082 105 0 105 0 2 791 3 790 688 -820 c379 -452
691 -821 693 -821 2 0 4 488 4 1085 l0 1085 -105 0 -105 0 -2 -797 -3 -798
-669 800 c-368 440 -679 811 -692 825 l-24 25 0 -1083z"/>
<path d="M9525 10008 c-123 -12 -222 -41 -335 -96 -75 -37 -111 -62 -171 -122
-113 -111 -159 -218 -159 -370 0 -146 47 -264 146 -370 104 -110 218 -160 409
-179 55 -6 150 -16 210 -22 227 -23 343 -90 422 -241 77 -148 -8 -355 -184
-451 -88 -47 -188 -67 -345 -67 -151 0 -262 15 -453 60 -68 17 -129 30 -134
30 -6 0 -31 -41 -56 -90 l-45 -90 27 -11 c58 -22 240 -70 340 -89 314 -60 557
-40 773 66 247 122 374 372 314 624 -33 140 -133 289 -242 359 -112 71 -222
101 -477 126 -191 19 -232 28 -309 68 -64 34 -119 98 -158 182 -81 181 56 370
324 445 169 48 391 33 620 -40 67 -21 123 -38 124 -37 5 5 84 191 84 197 0 18
-259 90 -410 115 -103 16 -177 17 -315 3z"/>
<path d="M16370 10009 c-347 -36 -608 -225 -661 -477 -16 -80 -6 -222 22 -297
80 -215 256 -337 524 -364 61 -6 155 -16 210 -22 173 -17 254 -48 342 -131 75
-72 108 -143 107 -233 -1 -38 -9 -90 -18 -114 -40 -109 -155 -210 -285 -252
-52 -17 -98 -23 -217 -27 -169 -5 -284 9 -489 59 -66 16 -125 29 -132 29 -7 0
-33 -40 -58 -89 l-44 -90 42 -15 c140 -52 367 -101 535 -115 442 -39 810 161
877 476 39 184 -11 368 -139 509 -125 138 -251 186 -576 219 -244 24 -312 47
-390 127 -135 140 -137 313 -6 437 182 172 515 207 871 91 65 -22 120 -38 121
-37 5 5 84 191 84 197 0 9 -127 51 -235 79 -189 48 -309 58 -485 40z"/>
<path d="M19270 10009 c-219 -24 -435 -124 -545 -251 -199 -233 -146 -615 108
-781 121 -78 192 -97 437 -117 74 -6 168 -18 209 -26 149 -31 257 -111 314
-232 26 -56 29 -71 25 -131 -12 -163 -117 -285 -305 -353 -46 -16 -90 -22
-214 -25 -174 -6 -268 5 -496 59 -74 17 -135 29 -137 27 -18 -19 -86 -173 -79
-179 15 -15 205 -69 327 -95 382 -78 691 -35 910 127 65 48 138 139 171 213
117 262 1 595 -255 729 -96 51 -224 81 -423 101 -251 24 -319 47 -396 130 -23
25 -56 76 -73 111 -26 56 -30 74 -26 127 5 79 29 129 93 193 96 97 288 164
472 164 107 0 282 -31 416 -74 l109 -34 14 34 c8 19 26 60 39 91 14 30 25 62
25 69 0 16 -183 75 -325 104 -118 25 -276 32 -395 19z"/>
<path d="M27475 10009 c-92 -11 -229 -51 -318 -94 -233 -111 -429 -317 -527
-552 -63 -152 -73 -209 -74 -418 -1 -224 13 -293 95 -464 58 -122 116 -206
202 -294 326 -331 828 -412 1247 -202 86 43 226 133 254 164 18 20 17 21 -49
106 -38 47 -70 85 -72 85 -1 0 -40 -27 -85 -61 -102 -76 -239 -143 -348 -170
-71 -18 -104 -21 -220 -17 -117 4 -146 9 -222 35 -169 59 -318 166 -424 306
-58 76 -126 219 -149 310 -69 282 21 595 229 802 288 288 709 335 1064 119 40
-24 79 -41 85 -37 42 24 156 126 151 134 -12 19 -149 102 -239 145 -207 98
-385 128 -600 103z"/>
<path d="M34440 10009 c-336 -37 -597 -226 -650 -471 -18 -80 -8 -238 19 -308
31 -80 104 -183 164 -228 116 -89 203 -117 422 -137 282 -26 338 -39 427 -96
125 -81 190 -208 168 -332 -30 -161 -163 -287 -351 -332 -83 -19 -315 -20
-434 0 -49 8 -147 28 -217 45 -70 16 -132 30 -137 30 -6 0 -31 -41 -56 -90
l-45 -90 27 -11 c126 -48 388 -104 551 -118 341 -30 659 87 795 292 76 114
108 255 88 389 -14 94 -81 233 -151 310 -115 129 -257 181 -577 213 -192 20
-228 27 -303 65 -64 32 -113 85 -154 168 -59 116 -42 213 54 315 67 72 139
113 265 149 66 19 104 22 220 23 157 0 244 -15 415 -70 57 -19 105 -33 106
-32 6 7 85 200 82 202 -11 10 -241 77 -323 95 -118 24 -286 33 -405 19z"/>
<path d="M21223 9995 c-153 -28 -275 -78 -413 -170 -211 -140 -369 -364 -437
-620 -23 -88 -26 -120 -27 -265 0 -142 3 -177 23 -255 66 -252 217 -478 414
-619 86 -62 255 -141 352 -166 155 -40 369 -44 516 -11 142 32 295 105 416
198 444 338 545 989 228 1462 -153 229 -416 398 -694 446 -101 18 -280 18
-378 0z m382 -224 c309 -75 554 -316 636 -626 28 -107 31 -280 5 -388 -60
-261 -222 -466 -463 -587 -322 -161 -708 -95 -968 164 -178 177 -257 367 -256
611 1 322 189 616 484 760 51 24 128 53 172 64 110 27 282 28 390 2z"/>
<path d="M30164 9996 c-162 -31 -283 -80 -418 -170 -241 -161 -415 -437 -457
-724 -17 -118 -7 -325 21 -432 29 -115 114 -288 188 -386 338 -447 977 -552
1450 -237 378 251 552 730 431 1183 -26 98 -114 278 -177 360 -141 186 -345
323 -574 386 -116 32 -350 42 -464 20z m421 -236 c283 -90 495 -302 585 -585
31 -99 39 -291 16 -405 -55 -268 -233 -491 -488 -609 -128 -59 -201 -75 -353
-74 -111 0 -143 4 -218 27 -271 81 -479 270 -580 527 -29 73 -57 215 -57 290
0 347 223 671 554 803 115 46 177 56 331 52 110 -3 155 -8 210 -26z"/>
<path d="M10450 9885 l0 -105 400 0 400 0 0 -945 0 -945 110 0 110 0 0 945 0
945 400 0 400 0 0 105 0 105 -910 0 -910 0 0 -105z"/>
<path d="M12500 8940 l0 -1050 655 0 655 0 0 105 0 105 -547 2 -548 3 -3 453
-2 452 345 0 345 0 0 110 0 110 -345 0 -345 0 2 273 3 272 513 3 512 2 0 105
0 105 -620 0 -620 0 0 -1050z"/>
<path d="M14020 8940 l0 -1050 105 0 105 0 2 393 3 392 220 2 220 3 304 -395
305 -395 138 0 c109 0 138 3 132 13 -5 6 -151 198 -325 424 l-318 412 62 38
c136 83 242 229 283 393 27 103 22 256 -10 355 -55 171 -174 316 -322 393
-132 68 -161 72 -556 72 l-348 0 0 -1050z m658 830 c359 -47 509 -492 252
-749 -57 -57 -151 -107 -231 -121 -31 -6 -148 -9 -260 -8 l-204 3 -3 430 c-1
237 0 436 3 443 5 15 330 17 443 2z"/>
<path d="M22860 8940 l0 -1050 695 0 695 0 0 105 0 105 -587 2 -588 3 -3 943
-2 942 -105 0 -105 0 0 -1050z"/>
<path d="M24502 9268 c4 -720 4 -723 26 -798 68 -219 217 -399 420 -503 110
-57 202 -84 320 -96 353 -36 688 142 848 451 86 168 84 143 84 955 l0 713
-105 0 -104 0 -3 -712 -3 -713 -26 -66 c-73 -189 -204 -315 -398 -383 -78 -27
-98 -30 -206 -30 -105 0 -130 4 -204 29 -188 64 -337 205 -404 382 -22 58 -22
63 -25 776 l-3 717 -110 0 -110 0 3 -722z"/>
<path d="M28650 8940 l0 -1050 110 0 110 0 0 1050 0 1050 -110 0 -110 0 0
-1050z"/>
<path d="M5700 7281 c-126 -39 -202 -135 -208 -266 -7 -136 36 -213 153 -276
78 -43 173 -68 375 -99 74 -11 164 -25 200 -31 100 -15 161 -35 212 -69 56
-37 84 -78 99 -148 21 -102 -36 -212 -135 -258 -50 -23 -57 -24 -355 -24 -202
0 -317 4 -342 12 -83 24 -153 111 -166 203 -5 42 -8 46 -32 43 -24 -3 -26 -6
-25 -55 3 -92 66 -187 157 -236 41 -21 52 -22 380 -25 388 -3 402 -1 485 73
66 59 95 127 96 220 1 88 -16 137 -65 190 -72 78 -167 109 -476 155 -288 44
-382 76 -451 154 -90 103 -60 275 62 351 l49 30 312 3 311 3 54 -29 c72 -37
116 -95 131 -173 11 -56 13 -60 38 -57 25 3 26 6 23 53 -5 73 -37 139 -93 189
-82 73 -98 76 -453 75 -171 0 -322 -4 -336 -8z"/>
<path d="M7600 7283 c-14 -2 -52 -13 -85 -25 -159 -56 -288 -194 -330 -353
-21 -82 -21 -388 0 -470 47 -178 192 -323 371 -369 49 -13 118 -16 327 -16
168 0 268 4 272 10 3 6 3 19 0 30 -6 19 -16 20 -264 20 -280 0 -336 8 -421 57
-147 87 -240 242 -240 404 l0 69 419 0 c272 0 422 4 426 10 3 6 3 19 0 30 -6
20 -16 20 -426 20 l-419 0 0 69 c0 209 146 391 357 446 43 11 118 15 310 15
158 0 254 4 258 10 3 6 3 19 0 30 -6 19 -15 20 -268 19 -144 -1 -273 -4 -287
-6z"/>
<path d="M8870 7281 c-76 -23 -130 -69 -161 -136 -17 -37 -19 -76 -19 -568 l0
-528 28 3 27 3 3 218 2 217 263 0 262 0 220 -220 c222 -222 256 -247 263 -195
2 14 -50 73 -188 210 -104 104 -190 193 -190 196 0 4 24 10 54 13 125 16 242
104 299 224 30 62 32 75 32 172 0 98 -2 110 -32 170 -35 71 -96 139 -158 175
-80 48 -138 55 -420 54 -143 0 -271 -4 -285 -8z m632 -83 c76 -35 142 -98 175
-167 24 -48 28 -68 28 -141 0 -73 -4 -93 -28 -141 -33 -69 -99 -132 -175 -167
l-57 -27 -348 -3 -348 -3 3 280 3 279 31 39 c16 21 50 48 75 61 43 22 49 23
314 20 269 -3 270 -3 327 -30z"/>
<path d="M10270 7268 c0 -28 452 -1112 478 -1147 68 -91 238 -93 313 -4 33 40
491 1136 483 1157 -13 33 -41 17 -64 -36 -13 -29 -117 -278 -232 -553 -115
-275 -216 -511 -224 -523 -23 -35 -98 -65 -141 -57 -81 15 -86 26 -337 626
-201 483 -234 554 -253 557 -18 3 -23 -1 -23 -20z"/>
<path d="M12095 7278 c-3 -7 -4 -285 -3 -618 l3 -605 25 0 25 0 0 615 0 615
-23 3 c-12 2 -24 -3 -27 -10z"/>
<path d="M13173 7276 c-142 -35 -278 -141 -341 -266 -51 -103 -65 -188 -59
-380 4 -144 7 -173 29 -232 49 -132 135 -231 250 -289 106 -54 147 -59 441
-59 l268 0 -3 28 -3 27 -280 5 c-263 5 -283 7 -338 29 -128 51 -241 169 -282
296 -17 50 -20 88 -20 235 0 160 2 181 24 240 51 138 159 246 296 296 42 15
94 19 325 24 l275 5 0 25 0 25 -265 2 c-186 1 -281 -2 -317 -11z"/>
<path d="M14295 7278 c-3 -7 -4 -285 -3 -618 l3 -605 28 -3 27 -3 -2 618 -3
618 -23 3 c-12 2 -24 -3 -27 -10z"/>
<path d="M15410 7284 c-14 -3 -52 -14 -85 -26 -158 -55 -281 -185 -329 -347
-23 -77 -23 -404 0 -482 41 -141 138 -260 262 -322 105 -52 153 -59 390 -55
184 3 214 6 267 26 160 60 281 189 329 351 22 76 23 391 1 476 -42 158 -165
291 -330 355 -55 22 -77 24 -270 26 -115 1 -221 0 -235 -2z m433 -69 c162 -42
290 -162 338 -316 28 -88 28 -370 0 -458 -48 -154 -187 -285 -342 -320 -24 -6
-123 -11 -219 -11 -248 0 -319 22 -438 134 -63 60 -97 114 -123 197 -28 88
-27 370 0 458 48 153 174 273 334 316 74 20 374 20 450 0z"/>
<path d="M17023 7274 c-61 -22 -136 -94 -164 -156 -17 -40 -23 -71 -23 -129 0
-91 25 -149 86 -204 87 -79 196 -110 604 -170 141 -21 222 -47 273 -92 105
-89 109 -243 10 -342 -69 -69 -78 -71 -429 -71 -284 0 -319 2 -355 19 -78 35
-132 107 -144 190 -6 41 -9 46 -35 49 l-29 4 5 -59 c10 -101 61 -179 150 -228
l53 -30 355 0 c349 0 356 0 397 23 109 58 156 132 161 258 3 67 0 90 -18 132
-53 124 -155 168 -512 222 -307 46 -379 70 -455 153 -104 113 -63 296 81 363
50 23 57 24 348 24 184 0 307 -4 325 -11 86 -32 149 -109 161 -196 6 -43 10
-48 35 -51 26 -3 27 -2 27 45 0 55 -37 143 -78 186 -15 16 -49 41 -77 55 l-50
27 -330 2 c-274 2 -337 -1 -372 -13z"/>
<path d="M19485 7275 c-58 -22 -110 -68 -137 -122 -23 -48 -23 -52 -26 -451
-2 -272 1 -421 8 -458 15 -73 61 -132 129 -166 l55 -28 221 0 c246 0 295 8
399 63 115 61 218 191 252 321 21 77 19 405 -2 477 -36 120 -119 232 -224 299
-102 66 -141 73 -400 76 -188 3 -243 0 -275 -11z m500 -60 c87 -23 167 -70
228 -134 100 -105 137 -213 137 -406 0 -146 -13 -216 -55 -301 -62 -127 -187
-226 -320 -254 -33 -7 -133 -10 -258 -8 -203 3 -204 3 -245 31 -23 15 -52 46
-64 70 -23 41 -23 48 -26 434 -2 260 1 406 8 433 14 51 63 108 115 131 34 16
68 19 230 19 140 0 207 -4 250 -15z"/>
<path d="M21313 7276 c-142 -35 -278 -141 -341 -266 -51 -103 -64 -188 -59
-380 3 -145 7 -173 29 -232 50 -132 135 -231 250 -289 106 -54 147 -59 441
-59 l268 0 -3 28 -3 27 -280 5 c-320 6 -342 11 -458 98 -113 86 -178 214 -181
355 l-1 72 423 3 423 2 -3 28 -3 27 -424 3 -424 2 6 78 c11 136 55 229 154
323 56 53 98 80 168 105 42 15 94 19 325 24 l275 5 0 25 0 25 -265 2 c-186 1
-281 -2 -317 -11z"/>
<path d="M23643 7276 c-142 -35 -278 -141 -341 -266 -51 -103 -65 -188 -59
-380 4 -144 7 -173 29 -232 49 -132 135 -231 250 -289 106 -54 147 -59 441
-59 l268 0 -3 28 -3 27 -280 5 c-263 5 -283 7 -338 29 -128 51 -241 169 -282
296 -17 50 -20 88 -20 235 0 160 2 181 24 240 51 138 159 246 296 296 42 15
94 19 325 24 l275 5 0 25 0 25 -265 2 c-186 1 -281 -2 -317 -11z"/>
<path d="M25163 7276 c-142 -35 -278 -141 -341 -266 -51 -103 -65 -188 -59
-380 4 -144 7 -173 29 -232 64 -171 192 -288 365 -333 80 -21 416 -21 497 0
187 49 332 194 381 382 21 79 20 354 0 442 -44 187 -199 342 -386 386 -81 19
-409 19 -486 1z m519 -75 c122 -48 232 -158 280 -280 18 -47 22 -81 26 -217 2
-101 0 -182 -8 -217 -36 -177 -185 -328 -360 -367 -36 -8 -119 -11 -245 -8
-170 3 -196 6 -248 27 -126 50 -239 168 -281 291 -23 69 -34 316 -17 405 34
181 178 337 354 381 36 9 112 12 247 11 175 -3 201 -5 252 -26z"/>
<path d="M28822 7275 c-62 -19 -106 -57 -136 -117 l-26 -52 0 -528 0 -528 24
0 c13 0 27 7 30 16 3 9 6 108 6 220 l0 204 333 0 c361 0 406 5 493 56 63 37
139 125 165 192 19 45 23 77 23 152 0 119 -24 186 -95 264 -59 65 -117 100
-195 121 -78 20 -557 21 -622 0z m660 -83 c77 -38 130 -92 167 -171 21 -46 26
-70 26 -136 0 -72 -3 -86 -34 -143 -41 -75 -94 -125 -170 -161 l-56 -26 -347
-3 -348 -3 0 265 c0 163 4 276 11 293 15 40 57 82 104 104 37 18 63 19 310 17
l271 -3 66 -33z"/>
<path d="M30227 7284 c-4 -4 -7 -181 -7 -394 0 -418 3 -448 57 -560 58 -121
214 -240 351 -269 78 -16 277 -14 346 4 142 37 273 139 335 263 58 115 62 150
59 574 l-3 383 -25 0 -25 0 -5 -405 c-5 -395 -6 -406 -29 -463 -54 -136 -174
-246 -312 -288 -60 -18 -89 -21 -202 -17 -127 3 -135 5 -207 39 -123 59 -202
143 -252 268 -22 54 -23 70 -28 461 -5 398 -5 405 -25 408 -12 2 -24 0 -28 -4z"/>
<path d="M31834 7275 c-4 -8 -4 -22 0 -30 5 -13 42 -15 256 -15 l250 0 2 -587
3 -588 27 -3 28 -3 2 588 3 588 253 3 253 2 -3 28 -3 27 -533 3 c-467 2 -533
0 -538 -13z"/>
<path d="M33656 7274 c-186 -45 -352 -217 -386 -403 -16 -85 -13 -357 5 -425
50 -192 208 -346 393 -385 82 -17 415 -14 487 4 169 45 305 171 366 341 30 82
38 353 15 464 -43 205 -203 367 -404 409 -77 16 -403 13 -476 -5z m456 -55
c134 -28 262 -128 323 -253 48 -97 58 -163 52 -336 -3 -111 -9 -158 -25 -201
-52 -146 -165 -254 -311 -299 -53 -17 -92 -20 -245 -20 -119 0 -198 5 -231 14
-167 44 -296 175 -340 343 -21 79 -20 328 0 408 43 162 175 296 336 339 66 18
363 21 441 5z"/>
<path d="M26741 7256 c-20 -21 -30 -80 -101 -592 -44 -313 -80 -579 -80 -591
0 -18 6 -23 25 -23 14 0 25 1 25 3 0 47 162 1152 170 1162 16 19 44 19 61 -1
7 -8 106 -266 221 -572 140 -375 215 -563 229 -574 21 -18 82 -24 114 -12 8 4
22 19 31 35 8 16 105 270 215 566 110 295 205 545 210 555 11 21 52 24 67 5 6
-7 45 -262 87 -567 41 -305 78 -565 80 -577 4 -16 13 -23 30 -23 14 0 25 6 25
13 0 41 -162 1163 -171 1178 -5 10 -18 23 -29 29 -30 16 -95 12 -118 -7 -14
-12 -93 -211 -228 -573 -114 -305 -215 -563 -224 -574 -31 -33 -56 -13 -88 72
-16 42 -112 297 -213 567 -100 269 -191 497 -201 507 -28 28 -108 25 -137 -6z"/>
</g>
</svg>
